HIERARCHY
ROOT Hips
{
	OFFSET 0.000000 0.000000 0.000000
	CHANNELS 6 Xposition Yposition Zposition Xrotation Yrotation Zrotation
	JOINT LeftUpLeg_virtual
	{
		OFFSET 0.000000 0.000000 0.000000
		CHANNELS 3 Xrotation Yrotation Zrotation
		JOINT LeftUpLeg
		{
			OFFSET 11.394100 -6.187798 -0.413800
			CHANNELS 3 Xrotation Yrotation Zrotation
			JOINT LeftLeg
			{
				OFFSET 0.430247 -32.302673 3.732800
				CHANNELS 3 Xrotation Yrotation Zrotation
				JOINT LeftFoot
				{
					OFFSET -0.430247 -48.264931 -6.423300
					CHANNELS 3 Xrotation Yrotation Zrotation
					JOINT LeftToeBase
					{
						OFFSET 4.230900 -16.068199 23.438400
						CHANNELS 3 Xrotation Yrotation Zrotation
						JOINT LeftToe_End
						{
							OFFSET 4.510700 0.695400 19.974600
							CHANNELS 3 Xrotation Yrotation Zrotation
							End Site
							{
								OFFSET 0 0 0
							}
						}
					}
				}
			}
		}
	}
	JOINT RightUpLeg_virtual
	{
		OFFSET 0.000000 0.000000 0.000000
		CHANNELS 3 Xrotation Yrotation Zrotation
		JOINT RightUpLeg
		{
			OFFSET -11.333700 -6.187798 -0.413800
			CHANNELS 3 Xrotation Yrotation Zrotation
			JOINT RightLeg
			{
				OFFSET -0.430392 -32.302628 3.733000
				CHANNELS 3 Xrotation Yrotation Zrotation
				JOINT RightFoot
				{
					OFFSET 0.430392 -48.264973 -6.423500
					CHANNELS 3 Xrotation Yrotation Zrotation
					JOINT RightToeBase
					{
						OFFSET -4.230900 -16.068199 23.438400
						CHANNELS 3 Xrotation Yrotation Zrotation
						JOINT RightToe_End
						{
							OFFSET -4.510700 0.695400 19.974600
							CHANNELS 3 Xrotation Yrotation Zrotation
							End Site
							{
								OFFSET 0 0 0
							}
						}
					}
				}
			}
		}
	}
	JOINT Spine_virtual
	{
		OFFSET 0.000000 0.000000 0.000000
		CHANNELS 3 Xrotation Yrotation Zrotation
		JOINT Spine
		{
			OFFSET -0.002400 12.777504 0.315300
			CHANNELS 3 Xrotation Yrotation Zrotation
			JOINT Spine1
			{
				OFFSET -0.002067 5.816869 0.032633
				CHANNELS 3 Xrotation Yrotation Zrotation
				JOINT Spine1_split
				{
					OFFSET -0.002067 5.816869 0.032633
					CHANNELS 3 Xrotation Yrotation Zrotation
					JOINT Spine2
					{
						OFFSET -0.002067 5.816869 0.032633
						CHANNELS 3 Xrotation Yrotation Zrotation
						JOINT Neck_virtual
						{
							OFFSET 0.000000 0.000000 0.000000
							CHANNELS 3 Xrotation Yrotation Zrotation
							JOINT Neck
							{
								OFFSET -0.003700 21.199493 -0.826900
								CHANNELS 3 Xrotation Yrotation Zrotation
								JOINT Head
								{
									OFFSET 0.000000 20.442200 4.834800
									CHANNELS 3 Xrotation Yrotation Zrotation
									JOINT HeadTop_End
									{
										OFFSET 0.000000 34.668396 4.968400
										CHANNELS 3 Xrotation Yrotation Zrotation
										End Site
										{
											OFFSET 0 0 0
										}
									}
								}
							}
						}
						JOINT LeftShoulder_virtual
						{
							OFFSET 0.000000 0.000000 0.000000
							CHANNELS 3 Xrotation Yrotation Zrotation
							JOINT LeftShoulder
							{
								OFFSET 3.288150 8.794197 -1.372250
								CHANNELS 3 Xrotation Yrotation Zrotation
								JOINT LeftShoulder_split
								{
									OFFSET 3.288150 8.794197 -1.372250
									CHANNELS 3 Xrotation Yrotation Zrotation
									JOINT LeftArm
									{
										OFFSET 11.953299 -2.279007 -0.146200
										CHANNELS 3 Xrotation Yrotation Zrotation
										JOINT LeftForeArm
										{
											OFFSET 18.448900 0.000000 0.000000
											CHANNELS 3 Xrotation Yrotation Zrotation
											JOINT LeftHand
											{
												OFFSET 29.527798 0.000000 0.000000
												CHANNELS 3 Xrotation Yrotation Zrotation
												End Site
												{
													OFFSET 0 0 0
												}
											}
										}
									}
								}
							}
						}
						JOINT RightShoulder_virtual
						{
							OFFSET 0.000000 0.000000 0.000000
							CHANNELS 3 Xrotation Yrotation Zrotation
							JOINT RightShoulder
							{
								OFFSET -3.249400 8.794197 -1.372250
								CHANNELS 3 Xrotation Yrotation Zrotation
								JOINT RightShoulder_split
								{
									OFFSET -3.249400 8.794197 -1.372250
									CHANNELS 3 Xrotation Yrotation Zrotation
									JOINT RightArm
									{
										OFFSET -11.953299 -2.279007 -0.146200
										CHANNELS 3 Xrotation Yrotation Zrotation
										JOINT RightForeArm
										{
											OFFSET -18.448900 0.000000 0.000000
											CHANNELS 3 Xrotation Yrotation Zrotation
											JOINT RightHand
											{
												OFFSET -29.527802 0.000000 0.000000
												CHANNELS 3 Xrotation Yrotation Zrotation
												End Site
												{
													OFFSET 0 0 0
												}
											}
										}
									}
								}
							}
						}
					}
				}
			}
		}
	}
}
MOTION
Frames: 11
Frame Time: 0.03333333
-1.564035 96.461914 -3.034786 0.000000 0.000000 0.000000 -6.159705 -24.871941 1.992171 -19.827412 9.269408 10.368027 30.328833 10.286205 1.672593 2.546133 17.411230 -10.611773 -0.285369 0.003789 -0.759740 0.000000 0.000000 0.000000 -6.159705 -24.871941 1.992171 -17.373276 -32.506619 -16.461074 37.052058 6.688664 -6.516121 -19.045171 -20.160934 3.723725 -2.342331 0.000003 0.000004 0.000000 0.000000 0.000000 -6.159705 -24.871941 1.992171 5.487877 -2.970322 -2.610611 1.467849 -2.966941 -0.448228 0.000000 0.000000 0.000000 0.000000 0.000000 0.000000 1.462564 -2.818548 0.261231 2.455875 4.751702 1.127231 -0.538440 -19.256463 -3.779597 0.000000 0.000000 0.000000 1.462564 -2.818548 0.261231 -0.595444 -16.332002 -20.041821 0.000000 0.000000 0.000000 13.316285 11.285349 -35.484807 179.999745 -83.343799 179.999745 0.000000 0.000000 0.000000 1.462564 -2.818548 0.261231 0.930379 17.936837 10.502393 0.000000 0.000000 0.000000 6.490558 30.847730 41.925125 -179.998543 86.604190 179.998543 0.000000 0.000000 0.000000 
-2.295358 96.641571 -2.789082 0.000000 0.000000 0.000000 -6.264118 -26.261440 1.723959 -20.128943 9.032337 10.923319 31.709846 10.130762 1.696272 2.855284 18.740226 -10.065320 -0.499365 0.011569 -1.326994 0.000000 0.000000 0.000000 -6.264118 -26.261440 1.723959 -16.123331 -32.267245 -15.448834 36.226671 6.926578 -6.481363 -19.187939 -19.567071 3.444242 -2.342331 0.000005 0.000004 0.000000 0.000000 0.000000 -6.264118 -26.261440 1.723959 5.557865 -2.785224 -2.501765 1.469060 -2.839397 -0.460261 0.000000 0.000000 0.000000 0.000000 0.000000 0.000000 1.463317 -2.694935 0.220314 2.455876 4.751712 1.127230 -0.495923 -18.984326 -3.620252 0.000000 0.000000 0.000000 1.463317 -2.694935 0.220314 -0.595444 -16.331997 -20.041822 0.000000 0.000000 0.000000 12.420918 10.550290 -35.769728 179.999991 -83.608182 -179.999991 0.000000 0.000000 0.000000 1.463317 -2.694935 0.220314 0.930388 18.037672 10.376099 0.000000 0.000000 0.000000 6.836822 30.018920 41.382856 -179.999445 85.726483 179.999445 0.000000 0.000000 0.000000 
-2.961141 96.838516 -2.545883 0.000000 0.000000 0.000000 -6.374571 -27.649994 1.456193 -20.184088 8.852667 11.389898 32.734850 9.870609 1.721596 3.246868 20.190553 -9.675479 -0.698244 0.022575 -1.851786 0.000000 0.000000 0.000000 -6.374571 -27.649994 1.456193 -14.834780 -31.849947 -14.441441 35.307167 6.913260 -6.426259 -19.214319 -18.875086 3.302301 -2.342331 0.000002 0.000004 0.000000 0.000000 0.000000 -6.374571 -27.649994 1.456193 5.616488 -2.544545 -2.401654 1.470253 -2.697863 -0.473616 0.000000 0.000000 0.000000 0.000000 0.000000 0.000000 1.463943 -2.557642 0.176190 2.455874 4.751729 1.127228 -0.552614 -18.607536 -3.469239 0.000000 0.000000 0.000000 1.463943 -2.557642 0.176190 -0.595444 -16.331997 -20.041822 0.000000 0.000000 0.000000 11.555119 9.778311 -36.062279 -179.999732 -83.889708 -179.999704 0.000000 0.000000 0.000000 1.463943 -2.557642 0.176190 0.926476 18.152643 10.275614 0.000000 0.000000 0.000000 7.261006 29.087535 40.849155 179.999964 84.752450 -179.999964 0.000000 0.000000 0.000000 
-3.517902 97.040703 -2.315376 0.000000 0.000000 0.000000 -6.491446 -29.035459 1.190676 -20.391993 8.789796 11.539276 33.439418 9.915156 1.728187 3.540233 20.449726 -9.263652 -0.915193 0.034620 -2.291183 0.000000 0.000000 0.000000 -6.491446 -29.035459 1.190676 -13.611793 -31.254314 -13.513697 34.365940 6.689264 -6.352274 -19.124630 -18.104883 3.289396 -2.342331 0.000002 0.000004 0.000000 0.000000 0.000000 -6.491446 -29.035459 1.190676 5.661456 -2.235185 -2.310200 1.471476 -2.547691 -0.487785 0.000000 0.000000 0.000000 0.000000 0.000000 0.000000 1.464451 -2.412450 0.130488 2.455878 4.751705 1.127233 -0.635373 -18.136432 -3.296949 0.000000 0.000000 0.000000 1.464451 -2.412450 0.130488 -0.595444 -16.332003 -20.041822 0.000000 0.000000 0.000000 10.825685 9.127652 -36.348839 179.999199 -84.145526 179.999226 0.000000 0.000000 0.000000 1.464451 -2.412450 0.130488 0.917856 18.249079 10.245466 0.000000 0.000000 0.000000 7.737188 28.253504 40.318118 -179.999909 83.844028 179.999882 0.000000 0.000000 0.000000 
-3.971243 97.241997 -2.083645 0.000000 0.000000 0.000000 -6.615399 -30.448198 0.912293 -21.151153 8.841256 11.263130 34.038422 9.997514 1.705063 3.668854 19.145449 -8.599990 -1.203046 0.047776 -2.690695 0.000000 0.000000 0.000000 -6.615399 -30.448198 0.912293 -12.472731 -30.502928 -12.676379 33.427926 6.324770 -6.263759 -18.939998 -17.274517 3.381563 -2.342331 0.000003 0.000004 0.000000 0.000000 0.000000 -6.615399 -30.448198 0.912293 5.693621 -1.845311 -2.216713 1.472776 -2.389305 -0.502735 0.000000 0.000000 0.000000 0.000000 0.000000 0.000000 1.464858 -2.259782 0.083149 2.455876 4.751729 1.127229 -0.752128 -17.597784 -3.112432 0.000000 0.000000 0.000000 1.464858 -2.259782 0.083149 -0.595444 -16.331998 -20.041821 0.000000 0.000000 0.000000 10.244584 8.618132 -36.601700 179.999663 -84.357324 179.999718 0.000000 0.000000 0.000000 1.464858 -2.259782 0.083149 0.903766 18.328835 10.287277 0.000000 0.000000 0.000000 8.228546 27.551339 39.791968 -179.999636 83.035252 179.999650 0.000000 0.000000 0.000000 
-4.382185 97.450211 -1.854141 0.000000 0.000000 0.000000 -6.746843 -31.861883 0.635532 -22.079427 8.979984 10.728961 34.245623 9.849999 1.661077 3.849505 16.833478 -7.916526 -1.533925 0.060671 -3.032118 0.000000 0.000000 0.000000 -6.746843 -31.861883 0.635532 -11.358921 -29.638506 -11.893326 32.456301 5.828958 -6.160300 -18.699659 -16.398313 3.539710 -2.342331 0.000004 0.000004 0.000000 0.000000 0.000000 -6.746843 -31.861883 0.635532 5.717845 -1.422942 -2.133436 1.474236 -2.227537 -0.518003 0.000000 0.000000 0.000000 0.000000 0.000000 0.000000 1.465173 -2.104033 0.035367 2.455875 4.751705 1.127230 -0.898593 -17.034526 -2.922132 0.000000 0.000000 0.000000 1.465173 -2.104033 0.035367 -0.595444 -16.331997 -20.041824 0.000000 0.000000 0.000000 9.769151 8.161933 -36.809160 179.999814 -84.546445 179.999882 0.000000 0.000000 0.000000 1.465173 -2.104033 0.035367 0.887395 18.399814 10.359420 0.000000 0.000000 0.000000 8.718179 26.911528 39.292241 -179.999773 82.284874 179.999732 0.000000 0.000000 0.000000 
-4.759105 97.663376 -1.634644 0.000000 0.000000 0.000000 -6.885614 -33.233146 0.372287 -22.853232 9.182383 10.064933 33.869884 9.199781 1.606622 4.242675 14.072777 -7.405612 -1.877536 0.071325 -3.289957 0.000000 0.000000 0.000000 -6.885614 -33.233146 0.372287 -10.274012 -28.686091 -11.170663 31.460821 5.197281 -6.042717 -18.422116 -15.493984 3.748641 -2.342331 0.000004 0.000004 0.000000 0.000000 0.000000 -6.885614 -33.233146 0.372287 5.735958 -0.995139 -2.068470 1.475747 -2.064544 -0.533391 0.000000 0.000000 0.000000 0.000000 0.000000 0.000000 1.465413 -1.947326 -0.012387 2.455877 4.751707 1.127231 -1.047589 -16.477425 -2.721436 0.000000 0.000000 0.000000 1.465413 -1.947326 -0.012387 -0.595444 -16.331997 -20.041822 0.000000 0.000000 0.000000 9.390236 7.724951 -36.959404 -179.999896 -84.732028 -179.999855 0.000000 0.000000 0.000000 1.465413 -1.947326 -0.012387 0.870523 18.460885 10.445874 0.000000 0.000000 0.000000 9.180971 26.329946 38.836828 179.999868 81.616765 -179.999937 0.000000 0.000000 0.000000 
-5.104015 97.873634 -1.432232 0.000000 0.000000 0.000000 -7.030908 -34.514179 0.128153 -23.221398 9.418920 9.391811 32.874687 7.789762 1.553420 4.851287 11.428424 -7.230484 -2.203073 0.077613 -3.435802 0.000000 0.000000 0.000000 -7.030908 -34.514179 0.128153 -9.231882 -27.674487 -10.515051 30.470348 4.426488 -5.913436 -18.128555 -14.580458 3.996446 -2.342331 0.000005 0.000004 0.000000 0.000000 0.000000 -7.030908 -34.514179 0.128153 5.748984 -0.589350 -2.023724 1.477280 -1.902287 -0.548713 0.000000 0.000000 0.000000 0.000000 0.000000 0.000000 1.465590 -1.790903 -0.057512 2.455875 4.751710 1.127230 -1.169358 -15.956328 -2.506779 0.000000 0.000000 0.000000 1.465590 -1.790903 -0.057512 -0.595444 -16.332002 -20.041821 0.000000 0.000000 0.000000 9.100131 7.274901 -37.041007 179.999445 -84.936503 179.999431 0.000000 0.000000 0.000000 1.465590 -1.790903 -0.057512 0.854945 18.510103 10.532161 0.000000 0.000000 0.000000 9.590291 25.808344 38.442436 -179.999759 81.060753 179.999759 0.000000 0.000000 0.000000 
-5.362212 98.044701 -1.266666 0.000000 0.000000 0.000000 -7.178587 -35.548601 -0.088590 -23.192046 9.672096 8.745095 31.436151 5.554639 1.508979 5.526417 9.232958 -7.356238 -3.378811 0.087341 -2.283231 0.000000 0.000000 0.000000 -7.178587 -35.548601 -0.088590 -8.337262 -26.611016 -9.978077 29.627120 3.401526 -5.773519 -17.848775 -13.685431 4.321292 -2.342331 0.000004 0.000004 0.000000 0.000000 0.000000 -7.178587 -35.548601 -0.088590 5.748292 -0.249114 -2.002050 1.478832 -1.742464 -0.563806 0.000000 0.000000 0.000000 0.000000 0.000000 0.000000 1.465716 -1.637382 -0.100762 2.455874 4.751724 1.127229 -1.192274 -15.478879 -2.263768 0.000000 0.000000 0.000000 1.465716 -1.637382 -0.100762 -0.595444 -16.331997 -20.041821 0.000000 0.000000 0.000000 8.895980 6.822070 -37.058400 179.999978 -85.214308 179.999950 0.000000 0.000000 0.000000 1.465716 -1.637382 -0.100762 0.843559 18.528632 10.613909 0.000000 0.000000 0.000000 9.856915 25.446548 38.144349 -179.999773 80.798474 179.999786 0.000000 0.000000 0.000000 
-5.562236 98.214203 -1.137386 0.000000 0.000000 0.000000 -7.328129 -36.409498 -0.251570 -22.844695 10.014770 7.931345 29.232629 3.969289 1.461366 6.464891 6.586409 -7.329095 -4.333580 0.049023 -0.974017 0.000000 0.000000 0.000000 -7.328129 -36.409498 -0.251570 -7.525243 -25.519487 -9.547207 28.823952 2.226299 -5.620399 -17.553639 -12.819546 4.678316 -2.342331 0.000003 0.000004 0.000000 0.000000 0.000000 -7.328129 -36.409498 -0.251570 5.738041 0.044706 -2.031080 1.480401 -1.584471 -0.578731 0.000000 0.000000 0.000000 0.000000 0.000000 0.000000 1.465805 -1.485617 -0.141358 2.455875 4.751694 1.127230 -1.104978 -15.033275 -1.988157 0.000000 0.000000 0.000000 1.465805 -1.485617 -0.141358 -0.595444 -16.332009 -20.041821 0.000000 0.000000 0.000000 8.773859 6.375947 -37.035003 179.999541 -85.530641 179.999568 0.000000 0.000000 0.000000 1.465805 -1.485617 -0.141358 0.837362 18.517681 10.681615 0.000000 0.000000 0.000000 10.051641 25.199998 37.921545 179.999896 80.724052 -179.999950 0.000000 0.000000 0.000000 
-5.740620 98.402840 -1.032200 0.000000 0.000000 0.000000 -7.481171 -37.202630 -0.372852 -22.062699 10.414923 7.037800 26.401809 3.254675 1.419019 7.521542 3.785280 -7.056385 -4.690217 -0.000021 0.000352 0.000000 0.000000 0.000000 -7.481171 -37.202630 -0.372852 -6.741288 -24.465983 -9.195926 27.988046 1.079330 -5.461157 -17.235525 -11.993626 5.005371 -2.342331 0.000003 0.000004 0.000000 0.000000 0.000000 -7.481171 -37.202630 -0.372852 5.724579 0.314710 -2.102960 1.481982 -1.427576 -0.593555 0.000000 0.000000 0.000000 0.000000 0.000000 0.000000 1.465870 -1.334622 -0.179946 2.455875 4.751710 1.127231 -0.913860 -14.635630 -1.683169 0.000000 0.000000 0.000000 1.465870 -1.334622 -0.179946 -0.595444 -16.331998 -20.041821 0.000000 0.000000 0.000000 8.721965 5.924299 -36.976551 179.999527 -85.847159 179.999527 0.000000 0.000000 0.000000 1.465870 -1.334622 -0.179946 0.834856 18.491762 10.732964 0.000000 0.000000 0.000000 10.243693 24.986980 37.744629 -179.999800 80.691985 179.999745 0.000000 0.000000 0.000000 
